{
    "asset" : {
        "generator" : "Khronos glTF Blender I/O v1.5.17",
        "version" : "2.0"
    },
    "scene" : 0,
    "scenes" : [
        {
            "name" : "Scene",
            "nodes" : [
                0
            ]
        }
    ],
    "nodes" : [
        {
            "mesh" : 0,
            "name" : "Low Poly Characte.000",
            "scale" : [
                1,
                1,
                1.3491288423538208
            ],
            "translation" : [
                0,
                3.0375447273254395,
                0
            ]
        }
    ],
    "materials" : [
        {
            "alphaMode" : "BLEND",
            "name" : "Material.002",
            "pbrMetallicRoughness" : {
                "baseColorFactor" : [
                    0.800000011920929,
                    0.800000011920929,
                    0.800000011920929,
                    0.8500002026557922
                ],
                "metallicFactor" : 0,
                "roughnessFactor" : 0.5
            }
        }
    ],
    "meshes" : [
        {
            "name" : "Mesh.002",
            "primitives" : [
                {
                    "attributes" : {
                        "POSITION" : 0,
                        "NORMAL" : 1,
                        "TEXCOORD_0" : 2
                    },
                    "indices" : 3,
                    "material" : 0
                }
            ]
        }
    ],
    "accessors" : [
        {
            "bufferView" : 0,
            "componentType" : 5126,
            "count" : 2831,
            "max" : [
                1.7906150817871094,
                2.928081512451172,
                0.6574040055274963
            ],
            "min" : [
                -1.790605068206787,
                -3.0319771766662598,
                -0.45442453026771545
            ],
            "type" : "VEC3"
        },
        {
            "bufferView" : 1,
            "componentType" : 5126,
            "count" : 2831,
            "type" : "VEC3"
        },
        {
            "bufferView" : 2,
            "componentType" : 5126,
            "count" : 2831,
            "type" : "VEC2"
        },
        {
            "bufferView" : 3,
            "componentType" : 5123,
            "count" : 5904,
            "type" : "SCALAR"
        }
    ],
    "bufferViews" : [
        {
            "buffer" : 0,
            "byteLength" : 33972,
            "byteOffset" : 0
        },
        {
            "buffer" : 0,
            "byteLength" : 33972,
            "byteOffset" : 33972
        },
        {
            "buffer" : 0,
            "byteLength" : 22648,
            "byteOffset" : 67944
        },
        {
            "buffer" : 0,
            "byteLength" : 11808,
            "byteOffset" : 90592
        }
    ],
    "buffers" : [
        {
            "byteLength" : 102400,
            "uri" : "data:application/octet-stream;base64,"
        }
    ]
}
