{
    "asset" : {
        "generator" : "Khronos glTF Blender I/O v1.5.17",
        "version" : "2.0"
    },
    "scene" : 0,
    "scenes" : [
        {
            "name" : "Scene",
            "nodes" : [
                0,
                1,
                2,
                3,
                4,
                5
            ]
        }
    ],
    "nodes" : [
        {
            "name" : "Light",
            "rotation" : [
                0.16907575726509094,
                0.7558803558349609,
                -0.27217137813568115,
                0.570947527885437
            ],
            "translation" : [
                4.076245307922363,
                5.903861999511719,
                -1.0054539442062378
            ]
        },
        {
            "name" : "Camera",
            "rotation" : [
                0.483536034822464,
                0.33687159419059753,
                -0.20870360732078552,
                0.7804827094078064
            ],
            "translation" : [
                7.358891487121582,
                4.958309173583984,
                6.925790786743164
            ]
        },
        {
            "mesh" : 0,
            "name" : "bedpole",
            "scale" : [
                0.9442206621170044,
                1.0229055881500244,
                0.6294804215431213
            ],
            "translation" : [
                0,
                1.4835885763168335,
                -1.634318232536316
            ]
        },
        {
            "mesh" : 1,
            "name" : "Atop.001",
            "scale" : [
                1.7190288305282593,
                1.38844633102417,
                1.5471261739730835
            ],
            "translation" : [
                0,
                7.866331100463867,
                1.2006752490997314
            ]
        },
        {
            "mesh" : 2,
            "name" : "Cylinder.002",
            "rotation" : [
                -0.5,
                0.5,
                -0.4999999701976776,
                0.5
            ],
            "scale" : [
                0.7933980226516724,
                0.5289319753646851,
                0.7933980226516724
            ],
            "translation" : [
                0,
                4.268797397613525,
                6.406946659088135
            ]
        },
        {
            "mesh" : 3,
            "name" : "overhead_base.001",
            "scale" : [
                0.7933980226516724,
                0.8595144152641296,
                0.5289319753646851
            ],
            "translation" : [
                0,
                1.2587629556655884,
                6.25715446472168
            ]
        }
    ],
    "materials" : [
        {
            "doubleSided" : true,
            "name" : "Material",
            "pbrMetallicRoughness" : {
                "baseColorFactor" : [
                    0.800000011920929,
                    0.800000011920929,
                    0.800000011920929,
                    1
                ],
                "metallicFactor" : 0.1654135286808014,
                "roughnessFactor" : 0.21954888105392456
            }
        },
        {
            "doubleSided" : true,
            "name" : "blue",
            "pbrMetallicRoughness" : {
                "baseColorFactor" : [
                    0.11710759997367859,
                    0.4019790589809418,
                    0.8000000715255737,
                    1
                ],
                "metallicFactor" : 0.02255639061331749,
                "roughnessFactor" : 0.5075187683105469
            }
        },
        {
            "doubleSided" : true,
            "name" : "grey",
            "pbrMetallicRoughness" : {
                "baseColorFactor" : [
                    0.10653503984212875,
                    0.10653503984212875,
                    0.10653503984212875,
                    1
                ],
                "metallicFactor" : 0.33834585547447205,
                "roughnessFactor" : 0.5
            }
        },
        {
            "doubleSided" : true,
            "name" : "Material.001",
            "pbrMetallicRoughness" : {
                "baseColorFactor" : [
                    0.800000011920929,
                    0.800000011920929,
                    0.800000011920929,
                    1
                ],
                "metallicFactor" : 0.1654135286808014,
                "roughnessFactor" : 0.21954888105392456
            }
        },
        {
            "doubleSided" : true,
            "name" : "blue.001",
            "pbrMetallicRoughness" : {
                "baseColorFactor" : [
                    0.11710759997367859,
                    0.4019790589809418,
                    0.8000000715255737,
                    1
                ],
                "metallicFactor" : 0.02255639061331749,
                "roughnessFactor" : 0.5075187683105469
            }
        },
        {
            "doubleSided" : true,
            "name" : "grey.001",
            "pbrMetallicRoughness" : {
                "baseColorFactor" : [
                    0.10653503984212875,
                    0.10653503984212875,
                    0.10653503984212875,
                    1
                ],
                "metallicFactor" : 0.33834585547447205,
                "roughnessFactor" : 0.5
            }
        },
        {
            "doubleSided" : true,
            "name" : "Material.002",
            "pbrMetallicRoughness" : {
                "baseColorFactor" : [
                    0,
                    0.39136022329330444,
                    1,
                    1
                ],
                "metallicFactor" : 0.1654135286808014,
                "roughnessFactor" : 0.21954888105392456
            }
        }
    ],
    "meshes" : [
        {
            "name" : "Cube",
            "primitives" : [
                {
                    "attributes" : {
                        "POSITION" : 0,
                        "NORMAL" : 1,
                        "TEXCOORD_0" : 2
                    },
                    "indices" : 3,
                    "material" : 0
                },
                {
                    "attributes" : {
                        "POSITION" : 4,
                        "NORMAL" : 5,
                        "TEXCOORD_0" : 6
                    },
                    "indices" : 7,
                    "material" : 1
                },
                {
                    "attributes" : {
                        "POSITION" : 8,
                        "NORMAL" : 9,
                        "TEXCOORD_0" : 10
                    },
                    "indices" : 11,
                    "material" : 2
                }
            ]
        },
        {
            "name" : "Cube.009",
            "primitives" : [
                {
                    "attributes" : {
                        "POSITION" : 12,
                        "NORMAL" : 13,
                        "TEXCOORD_0" : 14
                    },
                    "indices" : 15,
                    "material" : 3
                },
                {
                    "attributes" : {
                        "POSITION" : 16,
                        "NORMAL" : 17,
                        "TEXCOORD_0" : 18
                    },
                    "indices" : 19,
                    "material" : 4
                },
                {
                    "attributes" : {
                        "POSITION" : 20,
                        "NORMAL" : 21,
                        "TEXCOORD_0" : 22
                    },
                    "indices" : 23,
                    "material" : 5
                },
                {
                    "attributes" : {
                        "POSITION" : 24,
                        "NORMAL" : 25,
                        "TEXCOORD_0" : 26
                    },
                    "indices" : 11,
                    "material" : 6
                }
            ]
        },
        {
            "name" : "Cylinder.003",
            "primitives" : [
                {
                    "attributes" : {
                        "POSITION" : 27,
                        "NORMAL" : 28,
                        "TEXCOORD_0" : 29
                    },
                    "indices" : 30,
                    "material" : 3
                },
                {
                    "attributes" : {
                        "POSITION" : 31,
                        "NORMAL" : 32,
                        "TEXCOORD_0" : 33
                    },
                    "indices" : 34,
                    "material" : 5
                },
                {
                    "attributes" : {
                        "POSITION" : 35,
                        "NORMAL" : 36,
                        "TEXCOORD_0" : 37
                    },
                    "indices" : 38,
                    "material" : 4
                }
            ]
        },
        {
            "name" : "Cube.003",
            "primitives" : [
                {
                    "attributes" : {
                        "POSITION" : 39,
                        "NORMAL" : 40,
                        "TEXCOORD_0" : 41
                    },
                    "indices" : 42,
                    "material" : 3
                }
            ]
        }
    ],
    "accessors" : [
        {
            "bufferView" : 0,
            "componentType" : 5126,
            "count" : 80,
            "max" : [
                1,
                1.479178547859192,
                1
            ],
            "min" : [
                -1,
                -1.4704457521438599,
                -1
            ],
            "type" : "VEC3"
        },
        {
            "bufferView" : 1,
            "componentType" : 5126,
            "count" : 80,
            "type" : "VEC3"
        },
        {
            "bufferView" : 2,
            "componentType" : 5126,
            "count" : 80,
            "type" : "VEC2"
        },
        {
            "bufferView" : 3,
            "componentType" : 5123,
            "count" : 132,
            "type" : "SCALAR"
        },
        {
            "bufferView" : 4,
            "componentType" : 5126,
            "count" : 68,
            "max" : [
                1.25,
                2.017111301422119,
                8.033851623535156
            ],
            "min" : [
                -1.25,
                -0.7012149095535278,
                -3.591148614883423
            ],
            "type" : "VEC3"
        },
        {
            "bufferView" : 5,
            "componentType" : 5126,
            "count" : 68,
            "type" : "VEC3"
        },
        {
            "bufferView" : 6,
            "componentType" : 5126,
            "count" : 68,
            "type" : "VEC2"
        },
        {
            "bufferView" : 7,
            "componentType" : 5123,
            "count" : 132,
            "type" : "SCALAR"
        },
        {
            "bufferView" : 8,
            "componentType" : 5126,
            "count" : 24,
            "max" : [
                0.5833333730697632,
                1.7401764392852783,
                0.42500004172325134
            ],
            "min" : [
                -0.5833333730697632,
                1.4632532596588135,
                -0.42500004172325134
            ],
            "type" : "VEC3"
        },
        {
            "bufferView" : 9,
            "componentType" : 5126,
            "count" : 24,
            "type" : "VEC3"
        },
        {
            "bufferView" : 10,
            "componentType" : 5126,
            "count" : 24,
            "type" : "VEC2"
        },
        {
            "bufferView" : 11,
            "componentType" : 5123,
            "count" : 36,
            "type" : "SCALAR"
        },
        {
            "bufferView" : 12,
            "componentType" : 5126,
            "count" : 447,
            "max" : [
                0.4884324371814728,
                -0.11623048782348633,
                2.4777817726135254
            ],
            "min" : [
                -0.4884324371814728,
                -5.292677879333496,
                -0.4884324371814728
            ],
            "type" : "VEC3"
        },
        {
            "bufferView" : 13,
            "componentType" : 5126,
            "count" : 447,
            "type" : "VEC3"
        },
        {
            "bufferView" : 14,
            "componentType" : 5126,
            "count" : 447,
            "type" : "VEC2"
        },
        {
            "bufferView" : 15,
            "componentType" : 5123,
            "count" : 699,
            "type" : "SCALAR"
        },
        {
            "bufferView" : 16,
            "componentType" : 5126,
            "count" : 53,
            "max" : [
                0.4884324371814728,
                0.510410726070404,
                0.4884324371814728
            ],
            "min" : [
                -0.4884324371814728,
                -0.8800404071807861,
                -0.4884324371814728
            ],
            "type" : "VEC3"
        },
        {
            "bufferView" : 17,
            "componentType" : 5126,
            "count" : 53,
            "type" : "VEC3"
        },
        {
            "bufferView" : 18,
            "componentType" : 5126,
            "count" : 53,
            "type" : "VEC2"
        },
        {
            "bufferView" : 19,
            "componentType" : 5123,
            "count" : 81,
            "type" : "SCALAR"
        },
        {
            "bufferView" : 20,
            "componentType" : 5126,
            "count" : 20,
            "max" : [
                0.43098825216293335,
                -1.3017444610595703,
                0.4309883117675781
            ],
            "min" : [
                -0.43098825216293335,
                -1.3719911575317383,
                -0.4309883117675781
            ],
            "type" : "VEC3"
        },
        {
            "bufferView" : 21,
            "componentType" : 5126,
            "count" : 20,
            "type" : "VEC3"
        },
        {
            "bufferView" : 22,
            "componentType" : 5126,
            "count" : 20,
            "type" : "VEC2"
        },
        {
            "bufferView" : 23,
            "componentType" : 5123,
            "count" : 30,
            "type" : "SCALAR"
        },
        {
            "bufferView" : 24,
            "componentType" : 5126,
            "count" : 24,
            "max" : [
                0.34723082184791565,
                -2.1588430404663086,
                2.566744804382324
            ],
            "min" : [
                -0.34723082184791565,
                -3.0186524391174316,
                2.212556838989258
            ],
            "type" : "VEC3"
        },
        {
            "bufferView" : 25,
            "componentType" : 5126,
            "count" : 24,
            "type" : "VEC3"
        },
        {
            "bufferView" : 26,
            "componentType" : 5126,
            "count" : 24,
            "type" : "VEC2"
        },
        {
            "bufferView" : 27,
            "componentType" : 5126,
            "count" : 530,
            "max" : [
                1,
                2.3154704570770264,
                1
            ],
            "min" : [
                -1,
                -1,
                -1
            ],
            "type" : "VEC3"
        },
        {
            "bufferView" : 28,
            "componentType" : 5126,
            "count" : 530,
            "type" : "VEC3"
        },
        {
            "bufferView" : 29,
            "componentType" : 5126,
            "count" : 530,
            "type" : "VEC2"
        },
        {
            "bufferView" : 30,
            "componentType" : 5123,
            "count" : 858,
            "type" : "SCALAR"
        },
        {
            "bufferView" : 31,
            "componentType" : 5126,
            "count" : 128,
            "max" : [
                0.6486843228340149,
                2.3154704570770264,
                0.6486842036247253
            ],
            "min" : [
                -0.6486842036247253,
                1.9468908309936523,
                -0.6486843824386597
            ],
            "type" : "VEC3"
        },
        {
            "bufferView" : 32,
            "componentType" : 5126,
            "count" : 128,
            "type" : "VEC3"
        },
        {
            "bufferView" : 33,
            "componentType" : 5126,
            "count" : 128,
            "type" : "VEC2"
        },
        {
            "bufferView" : 34,
            "componentType" : 5123,
            "count" : 192,
            "type" : "SCALAR"
        },
        {
            "bufferView" : 35,
            "componentType" : 5126,
            "count" : 160,
            "max" : [
                1,
                -1,
                1
            ],
            "min" : [
                -1,
                -1.5000009536743164,
                -1
            ],
            "type" : "VEC3"
        },
        {
            "bufferView" : 36,
            "componentType" : 5126,
            "count" : 160,
            "type" : "VEC3"
        },
        {
            "bufferView" : 37,
            "componentType" : 5126,
            "count" : 160,
            "type" : "VEC2"
        },
        {
            "bufferView" : 38,
            "componentType" : 5123,
            "count" : 282,
            "type" : "SCALAR"
        },
        {
            "bufferView" : 39,
            "componentType" : 5126,
            "count" : 109,
            "max" : [
                1.5254443883895874,
                3.1449389457702637,
                0.6879031658172607
            ],
            "min" : [
                -1.5254443883895874,
                -1.503615379333496,
                -8.787017822265625
            ],
            "type" : "VEC3"
        },
        {
            "bufferView" : 40,
            "componentType" : 5126,
            "count" : 109,
            "type" : "VEC3"
        },
        {
            "bufferView" : 41,
            "componentType" : 5126,
            "count" : 109,
            "type" : "VEC2"
        },
        {
            "bufferView" : 42,
            "componentType" : 5123,
            "count" : 192,
            "type" : "SCALAR"
        }
    ],
    "bufferViews" : [
        {
            "buffer" : 0,
            "byteLength" : 960,
            "byteOffset" : 0
        },
        {
            "buffer" : 0,
            "byteLength" : 960,
            "byteOffset" : 960
        },
        {
            "buffer" : 0,
            "byteLength" : 640,
            "byteOffset" : 1920
        },
        {
            "buffer" : 0,
            "byteLength" : 264,
            "byteOffset" : 2560
        },
        {
            "buffer" : 0,
            "byteLength" : 816,
            "byteOffset" : 2824
        },
        {
            "buffer" : 0,
            "byteLength" : 816,
            "byteOffset" : 3640
        },
        {
            "buffer" : 0,
            "byteLength" : 544,
            "byteOffset" : 4456
        },
        {
            "buffer" : 0,
            "byteLength" : 264,
            "byteOffset" : 5000
        },
        {
            "buffer" : 0,
            "byteLength" : 288,
            "byteOffset" : 5264
        },
        {
            "buffer" : 0,
            "byteLength" : 288,
            "byteOffset" : 5552
        },
        {
            "buffer" : 0,
            "byteLength" : 192,
            "byteOffset" : 5840
        },
        {
            "buffer" : 0,
            "byteLength" : 72,
            "byteOffset" : 6032
        },
        {
            "buffer" : 0,
            "byteLength" : 5364,
            "byteOffset" : 6104
        },
        {
            "buffer" : 0,
            "byteLength" : 5364,
            "byteOffset" : 11468
        },
        {
            "buffer" : 0,
            "byteLength" : 3576,
            "byteOffset" : 16832
        },
        {
            "buffer" : 0,
            "byteLength" : 1398,
            "byteOffset" : 20408
        },
        {
            "buffer" : 0,
            "byteLength" : 636,
            "byteOffset" : 21808
        },
        {
            "buffer" : 0,
            "byteLength" : 636,
            "byteOffset" : 22444
        },
        {
            "buffer" : 0,
            "byteLength" : 424,
            "byteOffset" : 23080
        },
        {
            "buffer" : 0,
            "byteLength" : 162,
            "byteOffset" : 23504
        },
        {
            "buffer" : 0,
            "byteLength" : 240,
            "byteOffset" : 23668
        },
        {
            "buffer" : 0,
            "byteLength" : 240,
            "byteOffset" : 23908
        },
        {
            "buffer" : 0,
            "byteLength" : 160,
            "byteOffset" : 24148
        },
        {
            "buffer" : 0,
            "byteLength" : 60,
            "byteOffset" : 24308
        },
        {
            "buffer" : 0,
            "byteLength" : 288,
            "byteOffset" : 24368
        },
        {
            "buffer" : 0,
            "byteLength" : 288,
            "byteOffset" : 24656
        },
        {
            "buffer" : 0,
            "byteLength" : 192,
            "byteOffset" : 24944
        },
        {
            "buffer" : 0,
            "byteLength" : 6360,
            "byteOffset" : 25136
        },
        {
            "buffer" : 0,
            "byteLength" : 6360,
            "byteOffset" : 31496
        },
        {
            "buffer" : 0,
            "byteLength" : 4240,
            "byteOffset" : 37856
        },
        {
            "buffer" : 0,
            "byteLength" : 1716,
            "byteOffset" : 42096
        },
        {
            "buffer" : 0,
            "byteLength" : 1536,
            "byteOffset" : 43812
        },
        {
            "buffer" : 0,
            "byteLength" : 1536,
            "byteOffset" : 45348
        },
        {
            "buffer" : 0,
            "byteLength" : 1024,
            "byteOffset" : 46884
        },
        {
            "buffer" : 0,
            "byteLength" : 384,
            "byteOffset" : 47908
        },
        {
            "buffer" : 0,
            "byteLength" : 1920,
            "byteOffset" : 48292
        },
        {
            "buffer" : 0,
            "byteLength" : 1920,
            "byteOffset" : 50212
        },
        {
            "buffer" : 0,
            "byteLength" : 1280,
            "byteOffset" : 52132
        },
        {
            "buffer" : 0,
            "byteLength" : 564,
            "byteOffset" : 53412
        },
        {
            "buffer" : 0,
            "byteLength" : 1308,
            "byteOffset" : 53976
        },
        {
            "buffer" : 0,
            "byteLength" : 1308,
            "byteOffset" : 55284
        },
        {
            "buffer" : 0,
            "byteLength" : 872,
            "byteOffset" : 56592
        },
        {
            "buffer" : 0,
            "byteLength" : 384,
            "byteOffset" : 57464
        }
    ],
    "buffers" : [
        {
            "byteLength" : 57848,
            "uri" : "data:application/octet-stream;base64,"
        }
    ]
}
