{
    "asset" : {
        "generator" : "Khronos glTF Blender I/O v1.5.17",
        "version" : "2.0"
    },
    "scene" : 0,
    "scenes" : [
        {
            "name" : "Scene",
            "nodes" : [
                0
            ]
        }
    ],
    "nodes" : [
        {
            "mesh" : 0,
            "name" : "longBack",
            "translation" : [
                1.1205476522445679,
                0.48881208896636963,
                0
            ]
        }
    ],
    "materials" : [
        {
            "doubleSided" : true,
            "name" : "red",
            "pbrMetallicRoughness" : {
                "baseColorFactor" : [
                    0.5277186632156372,
                    0.027088623493909836,
                    0.022071652114391327,
                    1
                ],
                "metallicFactor" : 0,
                "roughnessFactor" : 0.5
            }
        }
    ],
    "meshes" : [
        {
            "name" : "BezierCurve.008",
            "primitives" : [
                {
                    "attributes" : {
                        "POSITION" : 0,
                        "NORMAL" : 1,
                        "TEXCOORD_0" : 2
                    },
                    "indices" : 3,
                    "material" : 0
                }
            ]
        }
    ],
    "accessors" : [
        {
            "bufferView" : 0,
            "componentType" : 5126,
            "count" : 8080,
            "max" : [
                0.20390856266021729,
                0.7575961351394653,
                1.2102632522583008
            ],
            "min" : [
                -1.780508041381836,
                -2.1714272499084473,
                -0.5973616242408752
            ],
            "type" : "VEC3"
        },
        {
            "bufferView" : 1,
            "componentType" : 5126,
            "count" : 8080,
            "type" : "VEC3"
        },
        {
            "bufferView" : 2,
            "componentType" : 5126,
            "count" : 8080,
            "type" : "VEC2"
        },
        {
            "bufferView" : 3,
            "componentType" : 5123,
            "count" : 40542,
            "type" : "SCALAR"
        }
    ],
    "bufferViews" : [
        {
            "buffer" : 0,
            "byteLength" : 96960,
            "byteOffset" : 0
        },
        {
            "buffer" : 0,
            "byteLength" : 96960,
            "byteOffset" : 96960
        },
        {
            "buffer" : 0,
            "byteLength" : 64640,
            "byteOffset" : 193920
        },
        {
            "buffer" : 0,
            "byteLength" : 81084,
            "byteOffset" : 258560
        }
    ],
    "buffers" : [
        {
            "byteLength" : 339644,
            "uri" : "data:application/octet-stream;base64,"
        }
    ]
}
