{
    "asset" : {
        "generator" : "Khronos glTF Blender I/O v1.5.17",
        "version" : "2.0"
    },
    "scene" : 0,
    "scenes" : [
        {
            "name" : "Scene",
            "nodes" : [
                0,
                1
            ]
        }
    ],
    "nodes" : [
        {
            "mesh" : 0,
            "name" : "aorta_new",
            "translation" : [
                0.6695373058319092,
                0.057207345962524414,
                0.7057323455810547
            ]
        },
        {
            "mesh" : 1,
            "name" : "heart",
            "rotation" : [
                0.7071068286895752,
                0,
                0,
                0.7071067094802856
            ],
            "scale" : [
                0.5,
                0.5,
                0.5
            ],
            "translation" : [
                -0.04077765345573425,
                0.01353768166154623,
                -0.002330346731469035
            ]
        }
    ],
    "materials" : [
        {
            "doubleSided" : true,
            "name" : "red",
            "pbrMetallicRoughness" : {
                "baseColorFactor" : [
                    0.5277186632156372,
                    0.027088623493909836,
                    0.022071652114391327,
                    1
                ],
                "metallicFactor" : 0,
                "roughnessFactor" : 0.5
            }
        },
        {
            "alphaMode" : "BLEND",
            "doubleSided" : true,
            "name" : "Material.002",
            "pbrMetallicRoughness" : {
                "baseColorFactor" : [
                    0.800000011920929,
                    0.800000011920929,
                    0.800000011920929,
                    0.6000000238418579
                ],
                "metallicFactor" : 0,
                "roughnessFactor" : 0.3136363625526428
            }
        }
    ],
    "meshes" : [
        {
            "name" : "BezierCurve.024",
            "primitives" : [
                {
                    "attributes" : {
                        "POSITION" : 0,
                        "NORMAL" : 1,
                        "TEXCOORD_0" : 2
                    },
                    "indices" : 3,
                    "material" : 0
                }
            ]
        },
        {
            "name" : "heartmesh.002",
            "primitives" : [
                {
                    "attributes" : {
                        "POSITION" : 4,
                        "NORMAL" : 5,
                        "TEXCOORD_0" : 6
                    },
                    "indices" : 7,
                    "material" : 1
                }
            ]
        }
    ],
    "accessors" : [
        {
            "bufferView" : 0,
            "componentType" : 5126,
            "count" : 7456,
            "max" : [
                0.6549188494682312,
                1.1892008781433105,
                0.5045308470726013
            ],
            "min" : [
                -1.3293533325195312,
                -1.7398223876953125,
                -1.3003175258636475
            ],
            "type" : "VEC3"
        },
        {
            "bufferView" : 1,
            "componentType" : 5126,
            "count" : 7456,
            "type" : "VEC3"
        },
        {
            "bufferView" : 2,
            "componentType" : 5126,
            "count" : 7456,
            "type" : "VEC2"
        },
        {
            "bufferView" : 3,
            "componentType" : 5123,
            "count" : 37746,
            "type" : "SCALAR"
        },
        {
            "bufferView" : 4,
            "componentType" : 5126,
            "count" : 48201,
            "max" : [
                2.752147912979126,
                2.593595504760742,
                3.3638429641723633
            ],
            "min" : [
                -2.390897750854492,
                -2.1283130645751953,
                -3.6465349197387695
            ],
            "type" : "VEC3"
        },
        {
            "bufferView" : 5,
            "componentType" : 5126,
            "count" : 48201,
            "type" : "VEC3"
        },
        {
            "bufferView" : 6,
            "componentType" : 5126,
            "count" : 48201,
            "type" : "VEC2"
        },
        {
            "bufferView" : 7,
            "componentType" : 5123,
            "count" : 213888,
            "type" : "SCALAR"
        }
    ],
    "bufferViews" : [
        {
            "buffer" : 0,
            "byteLength" : 89472,
            "byteOffset" : 0
        },
        {
            "buffer" : 0,
            "byteLength" : 89472,
            "byteOffset" : 89472
        },
        {
            "buffer" : 0,
            "byteLength" : 59648,
            "byteOffset" : 178944
        },
        {
            "buffer" : 0,
            "byteLength" : 75492,
            "byteOffset" : 238592
        },
        {
            "buffer" : 0,
            "byteLength" : 578412,
            "byteOffset" : 314084
        },
        {
            "buffer" : 0,
            "byteLength" : 578412,
            "byteOffset" : 892496
        },
        {
            "buffer" : 0,
            "byteLength" : 385608,
            "byteOffset" : 1470908
        },
        {
            "buffer" : 0,
            "byteLength" : 427776,
            "byteOffset" : 1856516
        }
    ],
    "buffers" : [
        {
            "byteLength" : 2284292,
            "uri" : "data:application/octet-stream;base64,"
        }
    ]
}
