{
    "asset" : {
        "generator" : "Khronos glTF Blender I/O v1.5.17",
        "version" : "2.0"
    },
    "scene" : 0,
    "scenes" : [
        {
            "name" : "Scene",
            "nodes" : [
                0
            ]
        }
    ],
    "nodes" : [
        {
            "mesh" : 0,
            "name" : "aorta_new",
            "translation" : [
                0.6695373058319092,
                0.057207345962524414,
                0.7057323455810547
            ]
        }
    ],
    "materials" : [
        {
            "doubleSided" : true,
            "name" : "red",
            "pbrMetallicRoughness" : {
                "baseColorFactor" : [
                    0.5277186632156372,
                    0.027088623493909836,
                    0.022071652114391327,
                    1
                ],
                "metallicFactor" : 0,
                "roughnessFactor" : 0.5
            }
        }
    ],
    "meshes" : [
        {
            "name" : "BezierCurve.024",
            "primitives" : [
                {
                    "attributes" : {
                        "POSITION" : 0,
                        "NORMAL" : 1,
                        "TEXCOORD_0" : 2
                    },
                    "indices" : 3,
                    "material" : 0
                }
            ]
        }
    ],
    "accessors" : [
        {
            "bufferView" : 0,
            "componentType" : 5126,
            "count" : 7750,
            "max" : [
                0.6549188494682312,
                1.1892008781433105,
                0.5045308470726013
            ],
            "min" : [
                -1.3261886835098267,
                -1.7398223876953125,
                -1.3030939102172852
            ],
            "type" : "VEC3"
        },
        {
            "bufferView" : 1,
            "componentType" : 5126,
            "count" : 7750,
            "type" : "VEC3"
        },
        {
            "bufferView" : 2,
            "componentType" : 5126,
            "count" : 7750,
            "type" : "VEC2"
        },
        {
            "bufferView" : 3,
            "componentType" : 5123,
            "count" : 39078,
            "type" : "SCALAR"
        }
    ],
    "bufferViews" : [
        {
            "buffer" : 0,
            "byteLength" : 93000,
            "byteOffset" : 0
        },
        {
            "buffer" : 0,
            "byteLength" : 93000,
            "byteOffset" : 93000
        },
        {
            "buffer" : 0,
            "byteLength" : 62000,
            "byteOffset" : 186000
        },
        {
            "buffer" : 0,
            "byteLength" : 78156,
            "byteOffset" : 248000
        }
    ],
    "buffers" : [
        {
            "byteLength" : 326156,
            "uri" : "data:application/octet-stream;base64,"
        }
    ]
}
